<svg width="69" height="92" viewBox="0 0 69 92" fill="none" xmlns="http://www.w3.org/2000/svg">
<path d="M67.7422 18.8672L50.1508 1.25781C49.3422 0.449219 48.2461 0 47.0961 0H46V23H69V21.9039C69 20.7719 68.5508 19.6758 67.7422 18.8672ZM40.25 24.4375V0H4.3125C1.92266 0 0 1.92266 0 4.3125V87.6875C0 90.0773 1.92266 92 4.3125 92H64.6875C67.0773 92 69 90.0773 69 87.6875V28.75H44.5625C42.1906 28.75 40.25 26.8094 40.25 24.4375ZM51.75 53.1875V61.8125C51.75 62.6031 51.1031 63.25 50.3125 63.25H40.25V73.3125C40.25 74.1031 39.6031 74.75 38.8125 74.75H30.1875C29.3969 74.75 28.75 74.1031 28.75 73.3125V63.25H18.6875C17.8969 63.25 17.25 62.6031 17.25 61.8125V53.1875C17.25 52.3969 17.8969 51.75 18.6875 51.75H28.75V41.6875C28.75 40.8969 29.3969 40.25 30.1875 40.25H38.8125C39.6031 40.25 40.25 40.8969 40.25 41.6875V51.75H50.3125C51.1031 51.75 51.75 52.3969 51.75 53.1875Z" fill="#89b0e1"/>
</svg>
